:SAMPLES-PER-SECOND 30
:FULLY-SPECIFIED
:DEGREES
1637
root  -54.0604 33.1668 -1.54049 -9.36072 -70.6694 16.3028
RightUpLeg  -55.6317 -1.21012 -19.4816
RightLeg  49.0037 7.39107 8.69037
RightFoot  -10.121 -0.240711 15.7097
RightToes  5.82063e-011 0 -3.6325e-017
Spine  52.4114 -5.75274 6.58273
Spine1  6.83113 -3.68118 2.44128
HEad  -44.4917 -7.8113 -5.34613
LeftShoulder1  1.02886 -1.98066 -11.5922
LeftArm  -46.5556 -43.402 -38.797
LeftForeArm  23.2289 -74.5942 -45.4742
LeftHand  -0.257592 -0.297722 5.33166
RightShoulder  0.311027 -1.48503 8.00922
RightArm  -53.7215 33.5382 27.3978
RightForeArm  91.8285 74.3696 131.766
RightHand  -0.49548 1.42567 -8.59077
LeftUpLeg  -51.3377 -7.19635 11.0075
LeftLeg  74.0165 -1.45313 -4.66847
LeftFoot  -5.17848 0.519037 -10.6245
LeftToes  1.54581e-011 7.46816e-011 -4.69922e-011
1638
root  -54.3564 33.5576 -1.30925 -11.2125 -72.6496 17.5799
RightUpLeg  -54.1052 -1.30891 -18.4321
RightLeg  47.8715 6.46298 7.2737
RightFoot  -11.5373 -0.0544902 14.0205
RightToes  5.82063e-011 0 -3.6325e-017
Spine  51.683 -6.12683 7.7569
Spine1  6.92231 -3.42838 1.61724
HEad  -43.7535 -6.81076 -7.12106
LeftShoulder1  1.04153 -2.31784 -10.6648
LeftArm  -49.3217 -43.1097 -36.9837
LeftForeArm  18.6568 -73.3112 -41.0225
LeftHand  -0.263556 -0.587813 5.21209
RightShoulder  0.323237 -1.18452 6.26003
RightArm  -54.0824 37.5926 27.1242
RightForeArm  81.5535 76.6048 119.644
RightHand  -0.448649 1.75167 -7.46012
LeftUpLeg  -52.2071 -4.97858 9.70027
LeftLeg  75.8853 -1.18444 -4.27409
LeftFoot  0.899118 0.453479 -3.91062
LeftToes  1.54581e-011 7.46816e-011 -4.69922e-011
1639
root  -54.6574 33.9755 -1.05344 -12.942 -74.4216 18.9218
RightUpLeg  -52.4582 -2.0491 -17.3394
RightLeg  46.3995 5.48679 5.82149
RightFoot  -12.4547 0.0380824 12.5415
RightToes  5.82063e-011 0 -3.6325e-017
Spine  50.9723 -6.33027 8.57012
Spine1  6.54019 -3.19254 0.947969
HEad  -42.7965 -5.63146 -8.50647
LeftShoulder1  1.07965 -2.98843 -9.20696
LeftArm  -51.8291 -42.2473 -35.5167
LeftForeArm  13.8273 -71.6463 -36.4012
LeftHand  -0.227078 -0.54083 4.54065
RightShoulder  0.315659 -0.957425 4.57989
RightArm  -54.1311 41.1271 26.2139
RightForeArm  62.2731 78.104 100.113
RightHand  -0.449313 1.41819 -7.79559
LeftUpLeg  -52.1784 -2.50188 8.59949
LeftLeg  75.7285 -1.83911 -7.11602
LeftFoot  -2.34278 0.453307 -5.65192
LeftToes  1.54581e-011 7.46816e-011 -4.69922e-011
1640
root  -54.9415 34.437 -0.798505 -14.614 -75.8306 20.2543
RightUpLeg  -50.5236 -2.98734 -16.421
RightLeg  44.5174 4.68256 4.60825
RightFoot  -13.0192 0.081813 11.605
RightToes  5.82063e-011 0 -3.6325e-017
Spine  50.7745 -5.97411 8.50138
Spine1  5.07959 -3.09267 1.71542
HEad  -41.2279 -4.57016 -9.62082
LeftShoulder1  1.20687 -3.59052 -9.67031
LeftArm  -52.4397 -41.6986 -33.6013
LeftForeArm  9.20517 -69.63 -32.2761
LeftHand  -0.236037 -0.141291 5.00284
RightShoulder  0.372016 -0.19782 3.19229
RightArm  -53.9237 44.1819 23.8168
RightForeArm  34.4808 77.7436 71.6566
RightHand  -0.393661 1.2781 -6.99607
LeftUpLeg  -51.4528 -0.489093 7.36624
LeftLeg  72.8249 -2.10349 -6.7637
LeftFoot  -5.11325 0.401587 -6.67695
LeftToes  1.54581e-011 7.46816e-011 -4.69922e-011
1641
root  -55.2241 34.8948 -0.552439 -16.262 -77.1425 21.2891
RightUpLeg  -48.2105 -3.65538 -15.5535
RightLeg  42.3401 3.98815 3.58641
RightFoot  -13.3567 0.103032 10.9832
RightToes  5.82063e-011 0 -3.6325e-017
Spine  50.4257 -5.96954 8.47077
Spine1  4.63395 -2.94782 0.991755
HEad  -41.425 -3.20573 -8.74402
LeftShoulder1  1.21455 -4.18398 -8.32784
LeftArm  -53.9644 -42.221 -30.6403
LeftForeArm  2.74085 -65.5613 -25.9183
LeftHand  -0.216641 -0.113695 4.61238
RightShoulder  0.366848 0.107174 1.96528
RightArm  -53.3618 46.7624 22.1602
RightForeArm  12.0999 74.923 50.5298
RightHand  -0.489845 1.77011 -8.07855
LeftUpLeg  -50.1057 1.58176 6.15249
LeftLeg  68.0608 -1.96029 -4.59927
LeftFoot  -7.21325 0.223541 -5.07268
LeftToes  1.54581e-011 7.46816e-011 -4.69922e-011
1642
root  -55.464 35.3401 -0.297388 -16.0132 -77.9044 20.5639
RightUpLeg  -45.7586 -4.69747 -14.7028
RightLeg  39.8189 3.74691 3.06374
RightFoot  -13.1763 0.0849459 10.8727
RightToes  5.82063e-011 0 -3.6325e-017
Spine  49.846 -5.96661 8.48625
Spine1  4.07174 -2.88863 0.752686
HEad  -40.9648 -2.55802 -9.28867
LeftShoulder1  1.27573 -5.17025 -7.07884
LeftArm  -55.1519 -42.7622 -27.8025
LeftForeArm  -2.76594 -61.1017 -21.3187
LeftHand  -0.283087 -0.860513 5.3901
RightShoulder  0.364633 0.52336 0.699722
RightArm  -52.5411 48.7538 20.1525
RightForeArm  -4.64463 70.2846 35.7637
RightHand  -0.597999 2.729 -8.77782
LeftUpLeg  -48.3784 2.70082 5.47816
LeftLeg  61.2539 -2.14333 -3.6417
LeftFoot  -9.04823 0.155008 -5.02527
LeftToes  1.54581e-011 7.46816e-011 -4.69922e-011
